<?xml version="1.0" encoding="UTF-8"?>
<svg xmlns="http://www.w3.org/2000/svg" xmlns:xlink="http://www.w3.org/1999/xlink" width="31px" height="31px" viewBox="0 0 31 31" version="1.1">
<g id="surface1">
<path style=" stroke:none;fill-rule:nonzero;fill:rgb(0%,0%,0%);fill-opacity:1;" d="M 14.601562 1.425781 C 11.152344 1.628906 7.730469 3.230469 5.292969 5.785156 C 3.222656 7.941406 1.945312 10.625 1.511719 13.695312 C 1.40625 14.453125 1.394531 16.335938 1.488281 17.113281 C 1.890625 20.410156 3.347656 23.347656 5.699219 25.625 C 7.863281 27.714844 10.625 29.058594 13.632812 29.488281 C 14.507812 29.609375 16.335938 29.625 17.175781 29.519531 C 19.691406 29.191406 22.128906 28.191406 24.113281 26.671875 C 25.171875 25.867188 26.460938 24.488281 27.207031 23.367188 C 29.789062 19.5 30.3125 14.601562 28.605469 10.292969 C 26.789062 5.714844 22.710938 2.4375 17.769531 1.582031 C 16.832031 1.417969 15.679688 1.363281 14.601562 1.425781 Z M 17.054688 7.066406 C 18.269531 7.320312 19.1875 7.699219 20.179688 8.351562 C 22.71875 10.027344 24.210938 13.121094 23.933594 16.132812 C 23.578125 19.984375 20.9375 22.976562 17.144531 23.84375 C 16.890625 23.902344 16.28125 23.957031 15.660156 23.976562 C 14.601562 24.007812 14.003906 23.957031 13.335938 23.769531 L 13.007812 23.679688 L 10.007812 24.285156 C 7.222656 24.847656 7 24.886719 6.90625 24.789062 C 6.8125 24.695312 6.855469 24.527344 7.550781 22.460938 L 8.289062 20.230469 L 8.140625 19.988281 C 7.285156 18.605469 6.855469 17.097656 6.863281 15.4375 C 6.863281 13.1875 7.652344 11.210938 9.21875 9.546875 C 11.179688 7.464844 14.277344 6.480469 17.054688 7.066406 Z M 17.054688 7.066406 "/>
<path style=" stroke:none;fill-rule:nonzero;fill:rgb(0%,0%,0%);fill-opacity:1;" d="M 14.757812 7.414062 C 13.28125 7.582031 12.109375 7.984375 11.015625 8.699219 C 8.511719 10.328125 7.128906 13.125 7.371094 16.046875 C 7.503906 17.546875 7.898438 18.691406 8.742188 20.011719 C 8.828125 20.136719 8.777344 20.3125 8.148438 22.214844 L 7.457031 24.285156 L 9.664062 23.832031 C 13.316406 23.082031 12.847656 23.144531 13.589844 23.316406 C 14.148438 23.449219 14.378906 23.46875 15.375 23.46875 C 16.101562 23.46875 16.660156 23.4375 16.894531 23.378906 C 19.097656 22.890625 20.929688 21.667969 22.097656 19.921875 C 23.003906 18.550781 23.4375 17.128906 23.4375 15.5 C 23.4375 13.335938 22.679688 11.433594 21.203125 9.894531 C 20.050781 8.6875 18.632812 7.898438 17.007812 7.5625 C 16.449219 7.445312 15.195312 7.367188 14.757812 7.414062 Z M 17.761719 11.902344 C 18.109375 12.765625 18.097656 12.859375 17.644531 12.660156 C 17.324219 12.511719 17.324219 12.511719 17.175781 12.988281 C 17.054688 13.347656 16.632812 14.171875 16.347656 14.601562 C 15.988281 15.121094 15.183594 15.945312 14.578125 16.40625 C 14.011719 16.820312 12.984375 17.367188 12.5 17.496094 C 12.097656 17.601562 11.878906 17.488281 11.855469 17.148438 C 11.828125 16.863281 11.949219 16.714844 12.269531 16.609375 C 12.703125 16.46875 13.558594 16.003906 14.042969 15.644531 C 15.121094 14.84375 15.929688 13.769531 16.34375 12.585938 L 16.484375 12.183594 L 16.183594 12.046875 C 16.007812 11.972656 15.871094 11.871094 15.871094 11.824219 C 15.871094 11.722656 17.105469 11.167969 17.335938 11.160156 C 17.441406 11.160156 17.507812 11.289062 17.761719 11.902344 Z M 13.769531 11.519531 C 14.441406 11.847656 14.832031 12.480469 14.832031 13.230469 C 14.832031 13.777344 14.695312 14.128906 14.328125 14.527344 C 13.472656 15.457031 11.867188 15.253906 11.257812 14.136719 C 11.054688 13.757812 10.980469 13.148438 11.09375 12.730469 C 11.242188 12.171875 11.816406 11.574219 12.363281 11.40625 C 12.703125 11.308594 13.453125 11.363281 13.769531 11.519531 Z M 18.738281 13.125 C 19.023438 13.453125 19.847656 14.726562 19.828125 14.8125 C 19.816406 14.878906 19.726562 14.917969 19.542969 14.929688 L 19.28125 14.949219 L 19.28125 19.59375 L 19.460938 19.59375 C 19.628906 19.59375 19.753906 19.714844 19.671875 19.804688 C 19.621094 19.851562 12.308594 19.851562 12.257812 19.804688 C 12.15625 19.699219 12.308594 19.59375 12.5625 19.59375 L 12.835938 19.59375 L 12.835938 18.855469 C 12.835938 18.445312 12.851562 18.074219 12.871094 18.015625 C 12.902344 17.9375 13.019531 17.917969 13.523438 17.917969 L 14.136719 17.917969 L 14.136719 19.59375 L 14.570312 19.59375 L 14.582031 18.425781 L 14.601562 17.265625 L 15.839844 17.265625 L 15.859375 18.425781 L 15.871094 19.59375 L 16.242188 19.59375 L 16.257812 17.929688 L 16.273438 16.273438 L 17.578125 16.273438 L 17.59375 17.929688 L 17.609375 19.59375 L 17.980469 19.59375 L 17.980469 14.949219 L 17.71875 14.929688 C 17.496094 14.917969 17.453125 14.890625 17.460938 14.785156 C 17.460938 14.652344 18.5 13.019531 18.585938 13.019531 C 18.617188 13.019531 18.6875 13.070312 18.738281 13.125 Z M 18.738281 13.125 "/>
<path style=" stroke:none;fill-rule:nonzero;fill:rgb(0%,0%,0%);fill-opacity:1;" d="M 16.808594 11.617188 L 16.347656 11.804688 L 16.542969 11.898438 C 16.796875 12.015625 16.796875 12.152344 16.527344 12.847656 C 16.09375 13.988281 15.234375 15.097656 14.171875 15.882812 C 13.75 16.195312 12.921875 16.648438 12.261719 16.914062 C 12.066406 16.996094 12.027344 17.210938 12.207031 17.265625 C 12.355469 17.308594 13.1875 16.964844 13.808594 16.585938 C 15.332031 15.65625 16.460938 14.285156 17.011719 12.679688 C 17.160156 12.238281 17.191406 12.214844 17.472656 12.300781 C 17.644531 12.355469 17.644531 12.3125 17.441406 11.828125 L 17.265625 11.433594 Z M 16.808594 11.617188 "/>
<path style=" stroke:none;fill-rule:nonzero;fill:rgb(0%,0%,0%);fill-opacity:1;" d="M 12.34375 11.699219 C 11.742188 11.917969 11.277344 12.609375 11.289062 13.261719 C 11.308594 14.320312 12.367188 15.097656 13.398438 14.800781 C 14.8125 14.382812 14.984375 12.445312 13.671875 11.769531 C 13.34375 11.59375 12.710938 11.5625 12.34375 11.699219 Z M 13.0625 12.046875 C 13.089844 12.082031 13.1875 12.15625 13.273438 12.207031 C 13.558594 12.351562 13.695312 12.835938 13.453125 12.835938 C 13.375 12.835938 13.328125 12.789062 13.328125 12.722656 C 13.328125 12.652344 13.273438 12.554688 13.207031 12.492188 C 13.082031 12.382812 13.082031 12.386719 13.082031 12.757812 C 13.082031 13.082031 13.101562 13.144531 13.207031 13.175781 C 13.390625 13.238281 13.578125 13.511719 13.578125 13.738281 C 13.578125 13.949219 13.324219 14.320312 13.175781 14.320312 C 13.132812 14.320312 13.082031 14.367188 13.058594 14.414062 C 12.996094 14.582031 12.933594 14.550781 12.5 14.160156 C 12.394531 14.066406 12.339844 13.957031 12.339844 13.832031 C 12.339844 13.515625 12.503906 13.527344 12.617188 13.851562 C 12.730469 14.1875 12.835938 14.117188 12.835938 13.707031 C 12.835938 13.429688 12.808594 13.328125 12.746094 13.328125 C 12.703125 13.328125 12.59375 13.253906 12.5 13.167969 C 12.261719 12.933594 12.269531 12.519531 12.511719 12.300781 C 12.605469 12.21875 12.722656 12.109375 12.773438 12.066406 C 12.890625 11.953125 13 11.949219 13.0625 12.046875 Z M 13.0625 12.046875 "/>
<path style=" stroke:none;fill-rule:nonzero;fill:rgb(0%,0%,0%);fill-opacity:1;" d="M 12.660156 12.472656 C 12.542969 12.59375 12.574219 12.863281 12.710938 12.988281 C 12.835938 13.101562 12.835938 13.09375 12.835938 12.753906 C 12.835938 12.398438 12.796875 12.339844 12.660156 12.472656 Z M 12.660156 12.472656 "/>
<path style=" stroke:none;fill-rule:nonzero;fill:rgb(0%,0%,0%);fill-opacity:1;" d="M 13.089844 13.734375 L 13.089844 14.105469 L 13.207031 13.957031 C 13.273438 13.875 13.328125 13.777344 13.328125 13.734375 C 13.328125 13.691406 13.273438 13.589844 13.207031 13.511719 L 13.089844 13.359375 Z M 13.089844 13.734375 "/>
<path style=" stroke:none;fill-rule:nonzero;fill:rgb(0%,0%,0%);fill-opacity:1;" d="M 18.195312 14.023438 C 17.992188 14.335938 17.820312 14.613281 17.804688 14.636719 C 17.792969 14.667969 17.878906 14.695312 18.003906 14.695312 L 18.226562 14.695312 L 18.226562 19.59375 L 19.035156 19.59375 L 19.035156 14.695312 L 19.25 14.695312 C 19.367188 14.695312 19.46875 14.679688 19.46875 14.667969 C 19.46875 14.613281 18.648438 13.453125 18.613281 13.453125 C 18.585938 13.453125 18.402344 13.707031 18.195312 14.023438 Z M 18.195312 14.023438 "/>
<path style=" stroke:none;fill-rule:nonzero;fill:rgb(0%,0%,0%);fill-opacity:1;" d="M 16.492188 18.042969 L 16.492188 19.59375 L 17.359375 19.59375 L 17.359375 16.492188 L 16.492188 16.492188 Z M 16.492188 18.042969 "/>
<path style=" stroke:none;fill-rule:nonzero;fill:rgb(0%,0%,0%);fill-opacity:1;" d="M 14.816406 18.539062 L 14.816406 19.59375 L 15.625 19.59375 L 15.625 17.484375 L 14.816406 17.484375 Z M 14.816406 18.539062 "/>
<path style=" stroke:none;fill-rule:nonzero;fill:rgb(0%,0%,0%);fill-opacity:1;" d="M 13.144531 18.878906 L 13.144531 19.59375 L 13.886719 19.59375 L 13.886719 18.164062 L 13.144531 18.164062 Z M 13.144531 18.878906 "/>
</g>
</svg>
