<svg xmlns="http://www.w3.org/2000/svg" xmlns:xlink="http://www.w3.org/1999/xlink" width="130" zoomAndPan="magnify" viewBox="0 0 97.5 30.000001" height="40" preserveAspectRatio="xMidYMid meet" version="1.0"><defs><g/><clipPath id="beba2a548e"><path d="M 3.3125 7.320312 L 17.902344 7.320312 L 17.902344 21.914062 L 3.3125 21.914062 Z M 3.3125 7.320312 " clip-rule="nonzero"/></clipPath></defs><g clip-path="url(#beba2a548e)"><path fill="#7ed957" d="M 15.777344 9.445312 C 14.40625 8.078125 12.582031 7.324219 10.636719 7.324219 C 6.632812 7.324219 3.375 10.566406 3.375 14.550781 C 3.375 15.824219 3.707031 17.070312 4.34375 18.164062 L 3.3125 21.910156 L 7.164062 20.902344 C 8.226562 21.480469 9.421875 21.785156 10.636719 21.785156 C 14.644531 21.785156 17.90625 18.542969 17.90625 14.558594 C 17.90625 12.625 17.148438 10.8125 15.777344 9.445312 Z M 10.636719 20.566406 C 9.554688 20.566406 8.492188 20.273438 7.5625 19.726562 L 7.34375 19.597656 L 5.054688 20.191406 L 5.667969 17.976562 L 5.523438 17.746094 C 4.914062 16.792969 4.597656 15.6875 4.597656 14.550781 C 4.597656 11.238281 7.308594 8.542969 10.640625 8.542969 C 12.253906 8.542969 13.773438 9.171875 14.914062 10.304688 C 16.050781 11.441406 16.679688 12.949219 16.679688 14.554688 C 16.675781 17.867188 13.96875 20.5625 10.636719 20.5625 Z M 13.949219 16.066406 C 13.769531 15.972656 12.875 15.539062 12.710938 15.476562 C 12.542969 15.417969 12.421875 15.386719 12.300781 15.570312 C 12.179688 15.75 11.832031 16.15625 11.722656 16.277344 C 11.617188 16.398438 11.511719 16.414062 11.332031 16.324219 C 11.152344 16.230469 10.5625 16.042969 9.871094 15.425781 C 9.332031 14.949219 8.96875 14.355469 8.859375 14.175781 C 8.753906 13.996094 8.847656 13.898438 8.941406 13.808594 C 9.023438 13.730469 9.121094 13.597656 9.214844 13.492188 C 9.304688 13.386719 9.332031 13.3125 9.394531 13.191406 C 9.453125 13.070312 9.425781 12.964844 9.378906 12.875 C 9.332031 12.785156 8.96875 11.894531 8.820312 11.53125 C 8.675781 11.179688 8.523438 11.230469 8.410156 11.222656 C 8.304688 11.21875 8.183594 11.21875 8.066406 11.21875 C 7.945312 11.21875 7.746094 11.261719 7.582031 11.441406 C 7.414062 11.621094 6.945312 12.058594 6.945312 12.949219 C 6.945312 13.835938 7.59375 14.695312 7.6875 14.816406 C 7.777344 14.9375 8.964844 16.761719 10.789062 17.542969 C 11.21875 17.730469 11.558594 17.839844 11.820312 17.925781 C 12.257812 18.0625 12.652344 18.042969 12.964844 17.996094 C 13.3125 17.945312 14.039062 17.5625 14.191406 17.140625 C 14.34375 16.71875 14.34375 16.355469 14.296875 16.28125 C 14.253906 16.199219 14.132812 16.15625 13.949219 16.0625 Z M 13.949219 16.066406 " fill-opacity="1" fill-rule="evenodd"/></g><g fill="#000000" fill-opacity="1"><g transform="translate(20.968362, 17.723564)"><g><path d="M 0.5 0 L 0.5 -0.75 L 4.40625 -7.109375 L 0.5625 -7.109375 L 0.5625 -7.9375 L 5.515625 -7.9375 L 5.515625 -7.1875 L 1.59375 -0.828125 L 5.5625 -0.828125 L 5.5625 0 Z M 0.5 0 "/></g></g></g><g fill="#000000" fill-opacity="1"><g transform="translate(28.789031, 17.723564)"><g><path d="M 0.34375 0 L 3.265625 -7.9375 L 4.265625 -7.9375 L 7.1875 0 L 6.171875 0 L 5.453125 -2.046875 L 2.078125 -2.046875 L 1.34375 0 Z M 2.359375 -2.8125 L 5.171875 -2.8125 L 3.765625 -6.734375 Z M 2.359375 -2.8125 "/></g></g></g><g fill="#000000" fill-opacity="1"><g transform="translate(38.071761, 17.723564)"><g><path d="M 0.84375 0 L 0.84375 -7.9375 L 3.4375 -7.9375 C 4.0625 -7.9375 4.570312 -7.832031 4.96875 -7.625 C 5.375 -7.414062 5.671875 -7.140625 5.859375 -6.796875 C 6.054688 -6.453125 6.15625 -6.0625 6.15625 -5.625 C 6.15625 -5.1875 6.054688 -4.796875 5.859375 -4.453125 C 5.671875 -4.109375 5.378906 -3.832031 4.984375 -3.625 C 4.585938 -3.414062 4.070312 -3.3125 3.4375 -3.3125 L 1.796875 -3.3125 L 1.796875 0 Z M 1.796875 -4.109375 L 3.421875 -4.109375 C 4.054688 -4.109375 4.503906 -4.242188 4.765625 -4.515625 C 5.035156 -4.785156 5.171875 -5.15625 5.171875 -5.625 C 5.171875 -6.09375 5.035156 -6.460938 4.765625 -6.734375 C 4.503906 -7.003906 4.054688 -7.140625 3.421875 -7.140625 L 1.796875 -7.140625 Z M 1.796875 -4.109375 "/></g></g></g><g fill="#000000" fill-opacity="1"><g transform="translate(46.389813, 17.723564)"><g><path d="M 4.234375 0.140625 C 3.484375 0.140625 2.828125 -0.03125 2.265625 -0.375 C 1.710938 -0.71875 1.28125 -1.191406 0.96875 -1.796875 C 0.664062 -2.398438 0.515625 -3.109375 0.515625 -3.921875 C 0.515625 -4.734375 0.671875 -5.453125 0.984375 -6.078125 C 1.304688 -6.703125 1.765625 -7.1875 2.359375 -7.53125 C 2.953125 -7.882812 3.65625 -8.0625 4.46875 -8.0625 C 5.40625 -8.0625 6.175781 -7.835938 6.78125 -7.390625 C 7.394531 -6.953125 7.789062 -6.335938 7.96875 -5.546875 L 6.359375 -5.546875 C 6.234375 -5.921875 6.007812 -6.210938 5.6875 -6.421875 C 5.375 -6.628906 4.96875 -6.734375 4.46875 -6.734375 C 3.675781 -6.734375 3.066406 -6.476562 2.640625 -5.96875 C 2.210938 -5.46875 2 -4.78125 2 -3.90625 C 2 -3.03125 2.210938 -2.351562 2.640625 -1.875 C 3.066406 -1.394531 3.644531 -1.15625 4.375 -1.15625 C 5.09375 -1.15625 5.632812 -1.347656 6 -1.734375 C 6.363281 -2.128906 6.582031 -2.644531 6.65625 -3.28125 L 4.65625 -3.28125 L 4.65625 -4.359375 L 8.125 -4.359375 L 8.125 0 L 6.78125 0 L 6.671875 -1.046875 C 6.410156 -0.660156 6.085938 -0.363281 5.703125 -0.15625 C 5.316406 0.0390625 4.828125 0.140625 4.234375 0.140625 Z M 4.234375 0.140625 "/></g></g></g><g fill="#000000" fill-opacity="1"><g transform="translate(56.907926, 17.723564)"><g><path d="M 0.765625 0 L 0.765625 -7.9375 L 3.6875 -7.9375 C 4.320312 -7.9375 4.84375 -7.828125 5.25 -7.609375 C 5.664062 -7.390625 5.972656 -7.097656 6.171875 -6.734375 C 6.378906 -6.367188 6.484375 -5.960938 6.484375 -5.515625 C 6.484375 -5.035156 6.351562 -4.59375 6.09375 -4.1875 C 5.84375 -3.789062 5.453125 -3.5 4.921875 -3.3125 L 6.5625 0 L 4.890625 0 L 3.421875 -3.125 L 2.21875 -3.125 L 2.21875 0 Z M 2.21875 -4.1875 L 3.59375 -4.1875 C 4.070312 -4.1875 4.425781 -4.300781 4.65625 -4.53125 C 4.882812 -4.769531 5 -5.082031 5 -5.46875 C 5 -5.84375 4.882812 -6.144531 4.65625 -6.375 C 4.4375 -6.601562 4.078125 -6.71875 3.578125 -6.71875 L 2.21875 -6.71875 Z M 2.21875 -4.1875 "/></g></g></g><g fill="#000000" fill-opacity="1"><g transform="translate(65.725972, 17.723564)"><g><path d="M 0.265625 0 L 3.15625 -7.9375 L 4.796875 -7.9375 L 7.6875 0 L 6.15625 0 L 5.515625 -1.828125 L 2.421875 -1.828125 L 1.78125 0 Z M 2.828125 -2.96875 L 5.125 -2.96875 L 3.96875 -6.265625 Z M 2.828125 -2.96875 "/></g></g></g><g fill="#000000" fill-opacity="1"><g transform="translate(75.428054, 17.723564)"><g><path d="M 0.765625 0 L 0.765625 -7.9375 L 2.21875 -7.9375 L 5.953125 -2.34375 L 5.953125 -7.9375 L 7.390625 -7.9375 L 7.390625 0 L 5.953125 0 L 2.21875 -5.578125 L 2.21875 0 Z M 0.765625 0 "/></g></g></g><g fill="#000000" fill-opacity="1"><g transform="translate(85.35681, 17.723564)"><g><path d="M 0.265625 0 L 3.15625 -7.9375 L 4.796875 -7.9375 L 7.6875 0 L 6.15625 0 L 5.515625 -1.828125 L 2.421875 -1.828125 L 1.78125 0 Z M 2.828125 -2.96875 L 5.125 -2.96875 L 3.96875 -6.265625 Z M 2.828125 -2.96875 "/></g></g></g></svg>