<svg version="1.0" xmlns="http://www.w3.org/2000/svg"
 width="500.000000pt" height="500.000000pt" viewBox="0 0 500.000000 500.000000"
 preserveAspectRatio="xMidYMid meet">

<g transform="translate(0.000000,500.000000) scale(0.100000,-0.100000)"
fill="#000000" stroke="none">
<path d="M2355 4770 c-556 -33 -1108 -291 -1501 -703 -334 -348 -540 -781
-610 -1276 -17 -122 -19 -426 -4 -551 65 -532 300 -1006 679 -1373 349 -337
795 -554 1280 -623 141 -20 436 -22 571 -5 406 53 799 214 1119 459 171 130
379 352 499 533 417 624 501 1414 226 2109 -293 738 -951 1267 -1748 1405
-151 26 -337 35 -511 25z m396 -910 c196 -41 344 -102 504 -207 409 -270 650
-769 605 -1255 -57 -621 -483 -1104 -1095 -1244 -41 -9 -139 -18 -239 -21
-171 -5 -267 3 -375 33 l-53 15 -484 -98 c-449 -91 -485 -97 -500 -81 -15 15
-8 42 104 375 l119 360 -24 39 c-138 223 -207 466 -206 734 0 363 127 682 380
950 316 336 816 495 1264 400z"/>
<path d="M2380 3804 c-238 -27 -427 -92 -603 -207 -404 -263 -627 -714 -588
-1185 21 -242 85 -427 221 -640 14 -20 6 -48 -96 -355 l-111 -334 356 73 c589
121 513 111 633 83 90 -21 127 -24 288 -24 117 0 207 5 245 14 355 79 651 276
839 558 146 221 216 450 216 713 0 349 -122 656 -360 904 -186 195 -415 322
-677 376 -90 19 -292 32 -363 24z m485 -724 c56 -139 54 -154 -19 -122 -52 24
-52 24 -76 -53 -19 -58 -87 -191 -133 -260 -58 -84 -188 -217 -286 -291 -91
-67 -257 -155 -335 -176 -65 -17 -100 1 -104 56 -4 46 15 70 67 87 70 23 208
98 286 156 174 129 304 302 371 493 l23 65 -49 22 c-28 12 -50 28 -50 36 0 16
199 106 236 107 17 0 28 -21 69 -120z m-644 62 c108 -53 171 -155 171 -276 0
-88 -22 -145 -81 -209 -138 -150 -397 -117 -495 63 -33 61 -45 159 -27 227 24
90 117 186 205 213 55 16 176 7 227 -18z m801 -259 c46 -53 179 -258 176 -272
-2 -11 -16 -17 -46 -19 l-42 -3 0 -375 0 -374 29 0 c27 0 47 -20 34 -34 -8 -8
-1188 -8 -1196 0 -16 17 8 34 49 34 l44 0 0 119 c0 66 3 126 6 135 5 13 24 16
105 16 l99 0 0 -135 0 -135 35 0 35 0 2 188 3 187 100 0 100 0 3 -187 2 -188
30 0 30 0 2 268 3 267 105 0 105 0 3 -267 2 -268 30 0 30 0 0 374 0 375 -42 3
c-36 2 -43 6 -42 23 0 22 168 285 182 285 5 0 16 -8 24 -17z"/>
<path d="M2711 3126 l-74 -30 31 -15 c41 -19 41 -41 -2 -153 -70 -184 -209
-363 -380 -490 -68 -50 -202 -123 -308 -166 -32 -13 -38 -48 -9 -57 24 -7 158
49 258 110 246 150 428 371 517 630 24 71 29 75 74 61 28 -9 28 -2 -5 76 l-28
64 -74 -30z"/>
<path d="M1991 3113 c-97 -35 -172 -147 -170 -252 3 -171 174 -296 340 -248
228 67 256 380 44 489 -53 28 -155 33 -214 11z m116 -56 c4 -6 20 -18 34 -26
46 -23 68 -101 29 -101 -13 0 -20 7 -20 18 0 11 -9 27 -20 37 -20 18 -20 17
-20 -43 0 -52 3 -62 20 -67 30 -10 60 -54 60 -91 0 -34 -41 -94 -65 -94 -7 0
-15 -7 -19 -15 -10 -27 -20 -22 -90 41 -17 15 -26 33 -26 53 0 51 27 49 45 -3
18 -54 35 -43 35 23 0 45 -4 61 -14 61 -7 0 -25 12 -40 26 -38 38 -37 105 2
140 15 13 34 31 42 38 19 18 37 19 47 3z"/>
<path d="M2042 2988 c-19 -19 -14 -63 8 -83 20 -18 20 -17 20 38 0 57 -6 67
-28 45z"/>
<path d="M2111 2785 l0 -60 19 24 c11 13 20 29 20 36 0 7 -9 23 -20 36 l-19
24 0 -60z"/>
<path d="M2935 2738 c-33 -50 -61 -95 -63 -99 -2 -5 12 -9 32 -9 l36 0 0 -395
0 -395 65 0 65 0 0 395 0 395 35 0 c19 0 35 2 35 4 0 9 -132 196 -138 196 -4
0 -34 -41 -67 -92z"/>
<path d="M2660 2090 l0 -250 70 0 70 0 0 250 0 250 -70 0 -70 0 0 -250z"/>
<path d="M2390 2010 l0 -170 65 0 65 0 0 170 0 170 -65 0 -65 0 0 -170z"/>
<path d="M2120 1955 l0 -115 60 0 60 0 0 115 0 115 -60 0 -60 0 0 -115z"/>
</g>
</svg>
